<?xml version="1.0" encoding="utf-8"?>
<!-- Generator: Adobe Illustrator 18.1.1, SVG Export Plug-In . SVG Version: 6.00 Build 0)  -->
<!DOCTYPE svg PUBLIC "-//W3C//DTD SVG 1.1//EN" "http://www.w3.org/Graphics/SVG/1.1/DTD/svg11.dtd">
<svg version="1.1" id="Layer_1" xmlns="http://www.w3.org/2000/svg" xmlns:xlink="http://www.w3.org/1999/xlink" x="0px" y="0px"
	 viewBox="-345 259.8 100 95.2" enable-background="new -345 259.8 100 95.2" xml:space="preserve">
<path fill="#FFFFFF" d="M-269.2,351.6c-11.6,1.8-9.7-4.5-9.9-11.7l-0.7-14.1l-3,13.7c-0.5,2.6-1.2,5,2.4,6.9c2.6,2.2-0.3,5.4-3.1,5
	c-8.5,0.3-7.3-5.4-6.5-9.4l0.5-5.8c0.3-3.9,1.1-6.4,1.3-11.9l-1.1-3c-9.2-2.4-15.5-4.2-22.7-8l-5.1,0.7c-2.3,0.3-1.7,3.1-2,4.8
	l-0.7,4.8l-4.2,11l-0.3,1c-0.3,0.8-0.2,3.7,0.9,5.3l2.2,4.6c1.8,2.6,2.2,9-2.5,6.9l-3.5-1.5c-2.5-1-4.6-8-5.4-13.1l0.1-7.2
	c-2.2-0.7-3.1,12.2-2.2,14.8l2.2,6.7c0.7,2.2-1.8,2.9-3.6,2.9c-4.2,0-6-4.2-6.9-7.8l-0.7-2.6c-1-4.1-0.5-10.3,1.6-13.9l1-2.2
	c1.9-4.4-0.4-7.6-1-9.9c-1.8-7.2-3.2-14.2,1.8-21.2l0.3-0.5c-0.1-0.5-1.6-1.7-2.5-4.4c-1.9-6.1-3.6-16.2-1.2-16.2l1.6-0.1
	c4,0,2.9,16.6,7.6,15.5l34.6,0.3l6.1-1.6c2.2-0.6,4.2-2,6.1-3.3l3.9-2.4c4.6,4.6,8.5,7.4,15,9.7c1.8,13.5-0.2,16.5-1.9,24.6
	l-0.7,3.3c-1.2,5.8-1.6,11.8-1.4,17.7l0.1,2.8c-0.1,2.9,1.6,3.1,3.8,3.7C-267.5,347.4-266.5,350.2-269.2,351.6L-269.2,351.6
	L-269.2,351.6z"/>
<path fill="#FFFFFF" d="M-261.9,268.9c1.9,1.3,4.3,3.6,6.2,5.6l2.4,2.6c1.6,1.6,3.9,1.4,6.1,1.8l0.7,0.1c2.3,1.2,1.6,3.7,0.8,5.5
	l-0.5,1.2c-2.2,5.2-8.6,5.7-13.2,3.2l-2-1.1h-0.7l-1.4,1l-2.9,2.3c-5.9-2.6-10.8-5.7-14.6-9.9l8.9-11.2l3-4.4l0.6-1.4l0.7-1.6
	c0.5-1.8,2.8-3.5,4.4-2.8c1.6,0.7,2.6,3.7,2.2,5.2l-0.4,1.8L-261.9,268.9L-261.9,268.9L-261.9,268.9z"/>
</svg>
